<svg width="86" height="78" xmlns="http://www.w3.org/2000/svg" xmlns:xlink="http://www.w3.org/1999/xlink"><defs><path d="M42.67 1.67l34.965 31.352a4 4 0 0 1 0 5.956L42.67 70.33a4 4 0 0 1-5.34 0L2.365 38.978a4 4 0 0 1 0-5.956L37.33 1.67a4 4 0 0 1 5.34 0z" id="b"/><filter x="-8.8%" y="-6.9%" width="117.5%" height="119.4%" filterUnits="objectBoundingBox" id="a"><feOffset dy="2" in="SourceAlpha" result="shadowOffsetOuter1"/><feGaussianBlur stdDeviation="2" in="shadowOffsetOuter1" result="shadowBlurOuter1"/><feComposite in="shadowBlurOuter1" in2="SourceAlpha" operator="out" result="shadowBlurOuter1"/><feColorMatrix values="0 0 0 0 0 0 0 0 0 0 0 0 0 0 0 0 0 0 0.04 0" in="shadowBlurOuter1"/></filter></defs><g fill="none" fill-rule="evenodd"><g transform="translate(3 1)"><use fill="#000" filter="url(#a)" xlink:href="#b"/><use fill-opacity=".92" fill="#E6FFFB" xlink:href="#b"/><path stroke="#5CDBD3" d="M42.337 2.042a3.5 3.5 0 0 0-4.674 0L2.698 33.394a3.5 3.5 0 0 0 0 5.212l34.965 31.352a3.5 3.5 0 0 0 4.674 0l34.965-31.352a3.5 3.5 0 0 0 0-5.212L42.337 2.042z"/></g><text font-family="PingFangSC-Regular, PingFang SC" font-size="12" fill="#000" fill-opacity=".65" transform="translate(3 1)"><tspan x="18" y="42">Decision</tspan></text></g></svg>