<?xml version="1.0" standalone="no"?><!DOCTYPE svg PUBLIC "-//W3C//DTD SVG 1.1//EN" "http://www.w3.org/Graphics/SVG/1.1/DTD/svg11.dtd"><svg class="icon" width="48px" height="48.00px" viewBox="0 0 1024 1024" version="1.1" xmlns="http://www.w3.org/2000/svg"><path fill="#becbd9" d="M999.075381 362.296841l-439.146824 214.0695a71.621977 71.621977 0 0 1-48.297902 17.976604c-18.118824 0-34.730117-6.001683-47.558358-17.976604L24.925472 362.296841l-3.783051-2.986619A71.109985 71.109985 0 0 1 0.008533 308.395473c0-19.455692 7.566102-37.432296 21.133888-50.886306l3.015063-3.015063L463.332753 17.953849A71.479757 71.479757 0 0 1 511.630655 0.005689c18.09038 0 34.701673 6.741227 48.297902 17.94816l439.146824 236.540255 3.015064 3.015063c13.596229 13.454009 21.133888 31.430613 21.133887 50.886306 0 19.455692-7.537658 37.432296-21.133887 50.914749l-3.015064 2.986619zM962.866177 298.667627L525.19844 62.866916l-3.015063-2.98662a17.493056 17.493056 0 0 0-23.380964 0l-3.015063 2.98662L58.119613 298.667627c-1.507532 2.986619-3.015063 5.973239-3.015063 8.988302 1.507532 3.726163 2.247076 6.712783 3.754607 8.988302h0.028444l437.639293 213.329956 3.015063 2.986619c6.058571 5.973239 16.611293 5.973239 23.409407 0l3.015064-2.986619 437.667737-213.329956a15.928637 15.928637 0 0 0 2.247075-8.988302c0-3.015063-0.739544-6.741227-3.015063-8.988302zM61.902664 726.067082a16.867288 16.867288 0 0 0-2.275519 20.22368l437.667737 213.329955 3.015063 2.986619c6.030127 6.001683 16.582849 6.001683 23.380963 0l3.015064-2.986619 437.667737-213.329955a16.867288 16.867288 0 0 0-2.27552-20.22368l39.992256-39.650928a71.821085 71.821085 0 0 1 0 102.540599l-3.015064 2.986619-439.146824 214.069499a70.541105 70.541105 0 0 1-48.297902 17.976605 71.109985 71.109985 0 0 1-47.558358-17.976605L24.925472 791.943372l-3.015063-2.986619a71.877973 71.877973 0 0 1 0-102.540599l39.992255 39.650928z"  /><path fill="#becbd9" d="M511.630655 809.151988c-18.118824 0-34.730117-5.973239-47.558358-17.94816L28.680079 579.35296a26.85113 26.85113 0 0 1-7.537658-5.233695A71.053097 71.053097 0 0 1 0.008533 523.23296c0-19.484136 7.566102-37.432296 21.133888-50.914749L61.134676 511.997582a15.189093 15.189093 0 0 0-4.522595 11.235378 19.910796 19.910796 0 0 0 2.247076 8.988302l433.91313 211.08288a26.85113 26.85113 0 0 1 7.537658 5.233695c6.030127 5.973239 16.582849 5.973239 23.380963 0a26.85113 26.85113 0 0 1 7.537659-5.233695l433.884685-211.08288a15.701085 15.701085 0 0 0 2.27552-8.988302 15.189093 15.189093 0 0 0-4.522595-11.235378l39.992256-39.679371c13.567785 13.482453 21.133888 31.430613 21.133887 50.914749 0 19.455692-7.566102 37.403852-21.133887 50.886305a26.85113 26.85113 0 0 1-7.537659 5.233695l-435.392217 212.590412a74.722372 74.722372 0 0 1-48.297902 17.208616z"  /></svg>