<?xml version="1.0" standalone="no"?><!DOCTYPE svg PUBLIC "-//W3C//DTD SVG 1.1//EN" "http://www.w3.org/Graphics/SVG/1.1/DTD/svg11.dtd"><svg class="icon" width="48px" height="48.00px" viewBox="0 0 1024 1024" version="1.1" xmlns="http://www.w3.org/2000/svg"><path fill="#becbd9" d="M970.105263 363.789474c-10.778947 0-18.863158 8.084211-18.863158 18.863158v215.578947H668.294737V309.894737c0-10.778947-8.084211-18.863158-18.863158-18.863158s-18.863158 8.084211-18.863158 18.863158v288.336842h-245.221053c-10.778947 0-18.863158 8.084211-18.863157 18.863158s8.084211 18.863158 18.863157 18.863158h107.789474v204.8c0 10.778947 8.084211 18.863158 18.863158 18.863158s18.863158-8.084211 18.863158-18.863158v-204.8h420.378947v86.231579c0 10.778947 8.084211 18.863158 18.863158 18.863158s18.863158-8.084211 18.863158-18.863158V382.652632c0-10.778947-8.084211-18.863158-18.863158-18.863158zM929.684211 35.031579h-88.926316c-10.778947 0-18.863158 8.084211-18.863158 18.863158s8.084211 18.863158 18.863158 18.863158h88.926316c10.778947 0 21.557895 10.778947 21.557894 21.557894v158.989474c0 10.778947 8.084211 18.863158 18.863158 18.863158s18.863158-8.084211 18.863158-18.863158V94.315789c0-32.336842-26.947368-59.284211-59.28421-59.28421z"  /><path fill="#becbd9" d="M970.105263 821.894737c-10.778947 0-18.863158 8.084211-18.863158 18.863158v88.926316c0 10.778947-10.778947 21.557895-21.557894 21.557894h-835.368422c-10.778947 0-21.557895-10.778947-21.557894-21.557894v-88.926316c0-10.778947-8.084211-18.863158-18.863158-18.863158s-18.863158 8.084211-18.863158 18.863158v88.926316c0 32.336842 26.947368 59.284211 59.28421 59.28421h835.368422c32.336842 0 59.284211-26.947368 59.28421-59.28421v-88.926316c0-8.084211-8.084211-18.863158-18.863158-18.863158zM37.726316 730.273684c2.694737 5.389474 5.389474 8.084211 10.778947 10.778948 2.694737 0 5.389474 2.694737 8.084211 2.694736 2.694737 0 5.389474 0 8.08421-2.694736 2.694737 0 5.389474-2.694737 5.389474-5.389474L730.273684 67.368421l5.389474-5.389474v-5.389473V53.894737c0-2.694737 0-5.389474-2.694737-8.084211 0-2.694737-2.694737-5.389474-5.389474-5.389473-2.694737-2.694737-2.694737-2.694737-5.389473-2.694737s-5.389474-2.694737-8.084211-2.694737h-619.789474c-32.336842 0-59.284211 26.947368-59.28421 59.28421v627.873685c0 2.694737 0 5.389474 2.694737 8.08421zM94.315789 72.757895h576.673685L72.757895 676.378947v-105.094736h64.673684c10.778947 0 18.863158-8.084211 18.863158-18.863158s-8.084211-18.863158-18.863158-18.863158H72.757895v-86.231579h64.673684c10.778947 0 18.863158-8.084211 18.863158-18.863158s-8.084211-18.863158-18.863158-18.863158H72.757895V323.368421h64.673684c10.778947 0 18.863158-8.084211 18.863158-18.863158s-8.084211-18.863158-18.863158-18.863158H72.757895V196.715789h64.673684c10.778947 0 18.863158-8.084211 18.863158-18.863157s-8.084211-18.863158-18.863158-18.863158H72.757895V94.315789c0-10.778947 10.778947-21.557895 21.557894-21.557894z"  /><path fill="#becbd9" d="M180.547368 191.326316l51.2 191.326316c5.389474 10.778947 16.168421 21.557895 29.642106 21.557894h5.389473c10.778947 0 21.557895-5.389474 29.642106-13.473684l145.515789-188.631579c5.389474-5.389474 8.084211-13.473684 8.084211-21.557895 0-5.389474 0-8.084211-2.694737-13.473684-5.389474-10.778947-16.168421-21.557895-32.336842-21.557895H220.968421c-13.473684-5.389474-26.947368 0-35.031579 10.778948-8.084211 10.778947-8.084211 21.557895-5.389474 35.031579 0-2.694737 0-2.694737 0 0z m226.357895-10.778948l-140.126316 185.936843-48.505263-185.936843h188.631579z"  /></svg>