<?xml version="1.0" standalone="no"?><!DOCTYPE svg PUBLIC "-//W3C//DTD SVG 1.1//EN" "http://www.w3.org/Graphics/SVG/1.1/DTD/svg11.dtd"><svg t="1643189059540" class="icon" viewBox="0 0 1024 1024" version="1.1" xmlns="http://www.w3.org/2000/svg" p-id="1032" xmlns:xlink="http://www.w3.org/1999/xlink" width="64" height="64"><defs><style type="text/css"></style></defs><path d="M389.0176 634.88c8.4992 8.3968 22.3232 8.3968 30.72 0L634.88 419.84c8.4992-8.3968 8.4992-22.3232 0-30.72-8.4992-8.3968-22.3232-8.3968-30.72 0L389.0176 604.16C380.6208 612.6592 380.6208 626.4832 389.0176 634.88z" fill="#bfcbd9" p-id="1033"></path><path d="M934.6048 243.0976 780.9024 89.3952c-33.8944-33.8944-88.9856-33.8944-122.9824 0L473.6 273.8176c-33.8944 33.8944-33.8944 88.9856 0 122.9824l30.72 30.72 30.72-30.72-30.72-30.72c-16.896-16.896-16.896-44.544 0-61.44l184.4224-184.4224c16.896-16.9984 44.544-16.9984 61.44 0l153.7024 153.7024c16.896 16.896 16.896 44.544 0 61.44L719.4624 519.68c-16.896 16.896-44.544 16.896-61.44 0l-30.72-30.72-30.72 30.72 30.72 30.72c33.8944 33.8944 88.9856 33.8944 122.9824 0l184.4224-184.4224C968.4992 332.0832 968.4992 276.992 934.6048 243.0976z" fill="#bfcbd9" p-id="1034"></path><path d="M519.68 596.48l-30.72 30.72 30.72 30.72c16.896 16.896 16.896 44.544 0 61.44L335.2576 903.8848c-16.896 16.896-44.544 16.896-61.44 0L120.1152 750.1824c-16.896-16.9984-16.896-44.544 0-61.44l184.4224-184.4224c16.896-16.896 44.544-16.896 61.44 0l30.72 30.72 30.72-30.72-30.72-30.72c-33.8944-33.8944-88.9856-33.8944-122.9824 0L89.3952 658.0224c-33.8944 33.8944-33.8944 88.9856 0 122.88l153.7024 153.7024c33.8944 33.8944 88.9856 33.8944 122.88 0l184.4224-184.4224c33.8944-33.8944 33.8944-88.9856 0-122.9824L519.68 596.48z" fill="#bfcbd9" p-id="1035"></path></svg>