<?xml version="1.0" standalone="no"?><!DOCTYPE svg PUBLIC "-//W3C//DTD SVG 1.1//EN" "http://www.w3.org/Graphics/SVG/1.1/DTD/svg11.dtd"><svg t="1639199702837" class="icon" viewBox="0 0 1541 1024" version="1.1" xmlns="http://www.w3.org/2000/svg" p-id="2825" xmlns:xlink="http://www.w3.org/1999/xlink" width="192.625" height="128"><defs><style type="text/css"></style></defs><path d="M6.293101 1017.72549h1517.176471V8.784314H6.293101v1008.941176z m1519.686274 2.509804V1016.470588v3.764706z m-1525.960784 3.764706V1.254902h1529.72549v1021.490196H0.018591z" fill="#353636" p-id="2826"></path><path d="M3.783297 5.019608h1523.45098v1015.215686H3.783297z" fill="#00458F" p-id="2827"></path><path d="M1525.979375 360.156863H917.351924V5.019608H612.410748v355.137255H3.783297V665.098039h608.627451v355.137255h304.941176V665.098039h608.627451z" fill="#FFFFFF" p-id="2828"></path><path d="M1525.979375 903.529412L178.21467 5.019608H3.783297v117.960784l1346.509804 897.254902h175.686274z" fill="#FFFFFF" p-id="2829"></path><path d="M3.783297 903.529412L1351.548003 5.019608h174.431372v117.960784L179.469572 1020.235294H3.783297z" fill="#FFFFFF" p-id="2830"></path><path d="M1525.979375 424.156863H853.351924V5.019608H676.410748v419.137255H3.783297v176.941176h672.627451v419.137255h176.941176V601.098039h672.627451z" fill="#CC3440" p-id="2831"></path><path d="M1525.979375 1017.72549v-80.313725L1116.881336 665.098039h-120.470588zM1525.979375 5.019608h-120.470588L917.351924 330.039216v30.117647h75.294118L1525.979375 5.019608zM533.351924 665.098039L3.783297 1017.72549v2.509804h115.45098l493.176471-327.529412V665.098039zM3.783297 5.019608v80.313725l411.607843 274.82353h121.72549z" fill="#CC3440" p-id="2832"></path></svg>